<svg class="HomeNav__logo w100" viewBox="0 0 572 86" version="1.1" xmlns="http://www.w3.org/2000/svg"><desc>Tablet Logo.</desc><g stroke="none" stroke-width="1" fill="none" fill-rule="evenodd"><g fill="#222222" fill-rule="nonzero"><path d="M166.016095,49.7685185 C182.327502,47.1805556 187.030791,44.5925926 187.030791,39.6157407 C187.030791,33.5439815 181.827152,30.0601852 166.016095,30.0601852 C160.011896,30.0601852 155.308607,30.7569444 151.505948,31.6527778 C158.010497,32.6481481 161.012596,35.1365741 161.012596,39.5162037 C161.012596,45.3888889 155.408677,48.5740741 145.0014,48.5740741 C133.993702,48.5740741 128.990203,45.3888889 128.990203,38.7199074 C128.990203,28.1689815 145.0014,21.5 167.216935,21.5 C201.240728,21.5 218.452764,30.3587963 218.452764,47.7777778 L218.452764,69.974537 C218.452764,72.2638889 220.053884,73.8564815 222.455563,73.8564815 C224.857243,73.8564815 226.458362,72.2638889 226.458362,69.974537 L226.458362,58.4282407 L236.46536,58.4282407 L236.46536,68.6805556 C236.46536,80.0277778 228.559832,86 213.449265,86 C200.940518,86 192.13436,80.2268519 190.63331,71.3680556 C184.328901,81.1226852 172.520644,86 154.908328,86 C134.594122,86 124.086774,80.2268519 124.086774,68.6805556 C124.086774,50.962963 152.906928,51.8587963 166.016095,49.7685185 Z M187.030791,52.4560185 C184.128761,54.5462963 178.724983,56.2384259 170.819454,57.5324074 C160.312106,59.224537 156.509447,61.912037 156.509447,67.5856481 C156.509447,72.3634259 160.412176,75.150463 166.516445,75.150463 C178.024493,75.150463 187.030791,65.2962963 187.030791,52.4560185 Z M547.983205,33.8425926 L547.983205,68.4814815 C547.983205,72.2638889 550.785164,74.6527778 554.988104,74.6527778 C559.191043,74.6527778 561.993002,72.2638889 561.993002,68.4814815 L561.993002,58.4282407 L572,58.4282407 L572,65.6944444 C572,79.5300926 563.694192,86 545.881735,86 C527.769069,86 517.962211,78.7337963 517.962211,65.1967593 L517.962211,33.8425926 L503.952414,33.8425926 L503.952414,23.8888889 C519.163051,23.8888889 527.969209,15.1296296 527.969209,0 L547.983205,0 L547.983205,23.8888889 L572,23.8888889 L572,33.8425926 L547.983205,33.8425926 Z M460.221833,86 C425.897831,86 407.484955,74.6527778 407.484955,53.75 C407.484955,34.3402778 426.79846,21.5 454.717985,21.5 C486.540238,21.5 505.953814,35.3356481 505.953814,56.7361111 L505.953814,58.4282407 L438.006298,58.4282407 C438.806858,69.875 448.013296,75.8472222 465.425472,75.8472222 C479.03499,75.8472222 486.940518,71.9652778 489.442267,63.7037037 L505.553534,63.7037037 C504.052484,76.4444444 484.839048,86 460.221833,86 Z M437.906228,49.0717593 L472.430371,49.0717593 C472.330301,37.625 466.326102,31.4537037 455.118265,31.4537037 C444.010497,31.4537037 438.006298,37.625 437.906228,49.0717593 Z M346.442267,9.9537037 L346.442267,0 L392.474458,0 L392.474458,63.7037037 C392.474458,69.974537 396.177047,73.6574074 402.481456,73.6574074 L408.485654,73.6574074 L408.485654,83.6111111 L346.442267,83.6111111 L346.442267,73.6574074 L352.446466,73.6574074 C358.750875,73.6574074 362.453464,69.974537 362.453464,63.7037037 L362.453464,19.9074074 C362.453464,13.6365741 358.750875,9.9537037 352.446466,9.9537037 L346.442267,9.9537037 Z M0,31.8518519 L0,0 L126.088174,0 L126.088174,31.8518519 L112.078376,31.8518519 L112.078376,22.8935185 C112.078376,15.3287037 107.675297,10.9490741 100.069979,10.9490741 L80.2561232,10.9490741 L80.2561232,60.7175926 C80.2561232,68.2824074 84.6592022,72.662037 92.2645206,72.662037 L100.270119,72.662037 L100.270119,83.6111111 L28.2197341,83.6111111 L28.2197341,72.662037 L36.2253324,72.662037 C43.8306508,72.662037 48.2337299,68.2824074 48.2337299,60.7175926 L48.2337299,10.9490741 L26.0181945,10.9490741 C18.4128761,10.9490741 14.0097971,15.3287037 14.0097971,22.8935185 L14.0097971,31.8518519 L0,31.8518519 Z M226.458362,9.9537037 L226.458362,0 L272.490553,0 L272.490553,32.5486111 C279.795661,25.2824074 291.403779,21.5 304.412876,21.5 C324.426872,21.5 347.442967,30.6574074 347.442967,53.75 C347.442967,76.6435185 324.526942,86 304.412876,86 C291.103569,86 276.593422,81.7199074 268.687894,70.4722222 L262.483555,83.6111111 L242.469559,83.6111111 L242.469559,19.9074074 C242.469559,13.6365741 238.76697,9.9537037 232.462561,9.9537037 L226.458362,9.9537037 Z M272.490553,53.75 C272.490553,65.6944444 281.096571,73.6574074 294.105668,73.6574074 C306.914626,73.6574074 315.520644,65.6944444 315.520644,53.75 C315.520644,41.8055556 306.914626,33.8425926 294.105668,33.8425926 C281.096571,33.8425926 272.490553,41.8055556 272.490553,53.75 Z"></path></g></g></svg>
